PathFileType	4	(X/Y/Z)	C:\My Captures\DataSMARTClinic\0004~001 ID\0004~aa~STRATO_01\W2_STRATO_ID_01.trc
DataRate	CameraRate	NumFrames	NumMarkers	Units	OrigDataRate	OrigDataStartFrame	OrigNumFrames
250.00	250.00	16	18	mm	250.00	451	1811
Frame#	Time	r.should			l.should			c7			r.asis			l.asis			sacrum			r.bar1			l.bar1			r.knee1			l.knee1			r.bar2			r.mall			l.bar2			l.mall			r.met			r.heel			l.heel			l.met			
		X1	Y1	Z1	X2	Y2	Z2	X3	Y3	Z3	X4	Y4	Z4	X5	Y5	Z5	X6	Y6	Z6	X7	Y7	Z7	X8	Y8	Z8	X9	Y9	Z9	X10	Y10	Z10	X11	Y11	Z11	X12	Y12	Z12	X13	Y13	Z13	X14	Y14	Z14	X15	Y15	Z15	X16	Y16	Z16	X17	Y17	Z17	X18	Y18	Z18	

1324	5.296000	1046.733499	1280.383348	388.480753	1037.245870	1292.305708	100.078225	960.579157	1341.181755	232.948542	1072.760582	853.093863	391.079813	1093.802929	856.806278	123.474374	879.182339	901.169598	239.486068	1000.231862	768.908620	439.094245	1022.725701	760.924041	61.664164	1138.586998	446.689516	402.137995	953.749657	423.056453	104.948863	1139.542341	385.290205	405.410856	1223.299980	97.433165	378.451139	933.617830	356.679887	106.679805	830.244115	85.251614	149.549872	1353.014231	94.560221	374.676704	1185.488701	45.507148	324.687302	767.895579	65.796576	188.744664	956.451118	40.859412	194.403902	
1325	5.300000	1051.165938	1280.007362	388.983041	1041.141272	1292.001724	100.639261	964.664102	1340.810537	233.617157	1077.627897	852.668285	391.505003	1098.142385	856.774390	123.799056	883.676171	900.744855	240.311906	1004.913926	768.392563	439.600140	1026.603341	760.509729	61.990581	1141.526222	445.396751	402.541101	956.647396	423.026323	104.904488	1143.690348	384.095073	405.811131	1233.170152	97.842477	379.400343	936.057448	356.745958	106.564127	830.816130	86.012580	149.177045	1363.156915	97.325034	375.177413	1196.058512	45.176435	325.974345	768.236160	66.919439	188.113213	956.461906	40.896315	194.308415	
1326	5.304000	1055.622816	1279.652834	389.519185	1044.999003	1291.685581	101.199374	968.747377	1340.457678	234.285384	1082.499146	852.304101	391.929984	1102.504730	856.786549	124.121234	888.212800	900.306046	241.160542	1009.593964	767.852545	440.072894	1030.479670	760.079741	62.342621	1144.425511	444.095820	402.906030	959.571123	423.006445	104.866907	1147.940278	383.008093	406.250089	1242.869139	98.457478	380.513698	938.572824	356.830448	106.450416	831.477709	86.791679	148.808122	1372.880697	99.996351	375.641435	1206.234574	44.909321	327.112377	768.581212	68.090625	187.457100	956.617713	40.932123	194.064721	
1327	5.308000	1060.110569	1279.299140	390.060544	1048.871636	1291.375756	101.761654	972.860813	1340.051293	234.979749	1087.385178	851.988435	392.330438	1106.907010	856.810451	124.444254	892.769396	899.865091	242.035046	1014.334440	767.322719	440.566868	1034.655571	759.908438	62.799685	1147.369266	442.888558	403.302014	962.575197	422.963619	104.830012	1152.267218	382.010758	406.673789	1252.420425	99.319831	381.802887	941.111505	356.900990	106.340505	832.224240	87.588735	148.443535	1381.891727	102.386355	376.192153	1215.896010	44.728320	328.205526	768.938065	69.300778	186.757863	956.771314	40.891036	193.782434	
1328	5.312000	1064.613700	1278.944612	390.621960	1052.718759	1291.073680	102.303587	977.002800	1339.606643	235.698462	1092.305541	851.708055	392.686516	1111.331940	856.819451	124.736093	897.322118	899.399161	242.907748	1019.130349	766.808391	441.078842	1038.687944	759.537935	63.211337	1150.366187	441.729546	403.693855	965.590715	422.909051	104.786851	1156.658769	381.102979	407.072634	1261.183262	99.894844	382.695198	943.693876	356.992155	106.194645	833.051112	88.403605	148.083687	1390.645027	104.713336	376.601100	1225.056529	44.601493	329.295337	768.836975	70.485219	185.609207	956.913590	40.890887	193.608522	
1329	5.316000	1069.113016	1278.592587	391.186595	1056.540012	1290.775418	102.871433	981.098294	1339.192390	236.413583	1097.281814	851.483166	393.038005	1115.702271	856.814742	125.028685	901.959836	898.928285	243.787780	1024.041176	766.276002	441.558659	1043.098092	759.537458	63.758202	1153.519034	440.607220	404.049277	968.648314	422.882110	104.747996	1161.119699	380.293250	407.496989	1269.437432	100.409202	383.417547	946.293890	357.088387	106.056005	833.953712	89.236110	147.729009	1398.984194	106.846757	376.909614	1233.747721	44.524260	330.243677	768.649578	71.663037	184.366569	957.009196	40.895004	193.489358	
1330	5.320000	1073.599815	1278.239012	391.744137	1060.311794	1290.476799	103.433609	985.182166	1338.760376	237.149775	1102.258205	851.259947	393.376917	1120.066881	856.775165	125.295073	906.607389	898.472190	244.705081	1029.036760	765.724003	442.032039	1047.307730	759.171128	64.176515	1156.863570	439.596415	404.448271	971.746802	422.862291	104.741842	1165.576220	379.565120	407.907218	1277.249455	100.901753	384.051859	948.950708	357.183725	105.951287	834.927430	90.086102	147.379950	1406.753182	108.737320	377.249002	1242.039800	44.527240	331.142485	769.949794	73.098987	184.454590	957.080424	40.882122	193.388462	
1331	5.324000	1078.034401	1277.876854	392.298818	1064.060211	1290.183425	103.996888	989.237547	1338.351130	237.888962	1107.219458	851.027668	393.719643	1124.529600	856.522024	125.515521	911.275089	897.980452	245.614097	1034.048557	765.202641	442.504346	1051.352382	758.540571	64.592376	1160.297871	438.664883	404.876411	974.862576	422.855616	104.725584	1170.009613	378.904998	408.304662	1284.645438	101.338767	384.593308	951.620102	357.276976	105.827376	835.967654	90.953410	147.036925	1414.162874	110.456817	377.544820	1249.901175	44.492442	331.872165	770.662010	74.520946	183.979988	957.137585	40.872522	193.283319	
1332	5.328000	1082.220435	1277.292728	392.906874	1067.822576	1289.891005	104.562953	993.290782	1337.941766	238.689959	1112.173080	850.805104	394.040108	1128.980637	856.001377	125.618726	916.001320	897.475541	246.492788	1039.108992	764.675617	442.982584	1055.714846	758.159757	65.104425	1163.841486	437.811852	405.351758	978.010416	422.842562	104.695186	1174.411535	378.298610	408.695757	1291.595697	101.685159	385.042995	954.225421	357.245564	105.611786	837.069772	91.837868	146.700367	1421.371698	112.311341	377.997994	1257.197976	44.304498	332.482547	771.204948	75.949356	183.354989	957.201362	40.870968	193.184152	
1333	5.332000	1086.337328	1276.682258	393.518537	1071.627378	1289.611697	105.144702	997.337580	1337.535858	239.514500	1117.154360	850.607991	394.329667	1133.410454	855.756879	125.841409	920.730948	896.979213	247.408763	1045.354605	764.358878	444.390833	1060.154915	757.805526	65.614536	1167.544246	437.074631	405.899882	981.216967	422.821581	104.695633	1178.760648	377.712846	409.084797	1298.048019	101.908699	385.393798	956.855536	357.090116	105.313569	838.229174	92.739329	146.370694	1428.297520	114.298485	378.652632	1264.024019	44.177745	333.036363	771.709859	77.406570	182.682931	957.279623	40.868483	193.089500	
1334	5.336000	1090.956330	1276.492834	394.097865	1075.473189	1289.332271	105.729148	1001.399398	1337.149382	240.317509	1122.210979	850.409269	394.652188	1137.839079	855.548322	126.075223	925.501764	896.487236	248.323873	1053.087950	764.325678	446.956962	1064.640522	757.462502	66.118374	1171.382904	436.395168	406.411529	984.454215	422.805250	104.686603	1183.017254	377.105027	409.473330	1304.105282	102.013685	385.682702	959.562659	357.138991	105.204485	839.441246	93.657613	146.048352	1434.316754	115.168393	378.921032	1270.524263	43.994404	333.439589	772.251725	78.929126	182.013869	957.386434	40.874939	192.975119	
1335	5.340000	1095.232844	1275.980234	394.734293	1079.282165	1289.047241	106.315464	1005.464077	1336.721063	241.153300	1127.268910	850.173533	394.971788	1142.316341	855.361462	126.328230	930.290163	895.984292	249.240413	1058.985353	763.971448	447.980881	1069.317102	757.278204	66.676825	1175.359726	435.730517	406.886071	987.705231	422.767490	104.701497	1187.208414	376.428187	409.878105	1309.780240	101.930641	385.926247	962.351680	357.276738	105.122000	840.701379	94.592579	145.733774	1439.874411	115.556076	379.047811	1276.455879	43.670710	333.739281	772.857547	80.484271	181.406140	957.527161	40.881559	192.825049	
1336	5.344000	1100.125313	1276.043653	395.349085	1083.082438	1288.771391	106.932312	1009.490728	1336.284637	241.961688	1132.299781	849.940956	395.322949	1146.839142	855.167985	126.620188	935.064077	895.479560	250.171900	1064.416409	763.507187	448.633611	1074.115634	757.113457	67.274503	1179.440260	435.128748	407.369196	990.986466	422.764897	104.710460	1191.344500	375.697017	410.284072	1314.981103	101.662785	386.114061	965.245664	357.405633	105.025761	842.004960	95.544048	145.427361	1445.035458	115.606055	379.079700	1281.802893	43.202627	333.969802	772.968769	82.007103	180.323035	957.051635	40.785953	193.153605	
1337	5.348000	1104.407549	1275.564909	395.999014	1086.867213	1288.480520	107.542738	1013.562202	1335.811138	242.824420	1137.317777	849.696994	395.663530	1151.350498	854.925692	126.933247	939.823091	894.980788	251.093715	1069.758415	763.028026	449.197561	1078.529000	756.496906	67.752294	1183.554530	434.559166	407.773197	994.360209	422.756076	104.722165	1195.434213	374.931693	410.686493	1319.804072	101.210475	386.234373	968.125820	357.522190	104.930967	843.347378	96.511856	145.129561	1449.805498	115.341075	378.997087	1286.611080	42.662308	334.115595	772.999644	83.531350	179.141209	955.845118	40.586501	194.087073	
1338	5.352000	1108.569384	1274.947047	396.684229	1090.675235	1288.205385	108.153231	1017.619729	1335.337877	243.689030	1142.410755	849.422276	396.062613	1155.929089	854.657412	127.303973	944.668531	894.436598	252.018750	1075.009942	762.574077	449.763805	1083.118558	756.106734	68.267271	1187.787652	433.997571	408.154935	997.762680	422.746241	104.760230	1199.555278	374.162912	411.109686	1324.211001	100.571238	386.326492	971.068621	357.697725	104.870006	844.724022	97.495861	144.840792	1454.212666	114.754930	378.801435	1290.940642	42.068835	334.307343	774.539888	85.319698	179.316133	955.865741	40.642530	194.125548	
1339	5.356000	1113.386869	1274.936438	397.321224	1094.489455	1287.931681	108.769216	1021.728992	1334.837675	244.504154	1147.533655	849.150598	396.483570	1160.536170	854.386091	127.699241	949.520290	893.897593	252.966017	1080.229282	762.140036	450.318366	1087.702274	755.708277	68.841986	1192.195654	433.477640	408.502281	1001.165986	422.711015	104.810439	1203.739643	373.391271	411.528498	1328.225851	99.743947	386.365712	974.039137	357.836425	104.838118	846.130279	98.495878	144.561499	1458.262920	113.854967	378.486127	1294.712543	41.311361	334.492713	775.513709	87.036431	178.931683	956.748843	40.789712	193.405390	
